<?xml version="1.0" standalone="no"?>
<!DOCTYPE svg PUBLIC "-//W3C//DTD SVG 20010904//EN"
 "http://www.w3.org/TR/2001/REC-SVG-20010904/DTD/svg10.dtd">
<svg version="1.0" xmlns="http://www.w3.org/2000/svg"
 width="1921.000000pt" height="1057.000000pt" viewBox="0 0 1921.000000 1057.000000"
 preserveAspectRatio="xMidYMid meet">

<g transform="translate(0.000000,1057.000000) scale(0.100000,-0.100000)"
fill="#000000" stroke="none">
<path d="M6655 10463 c-27 -8 -54 -19 -59 -24 -6 -5 -18 -9 -28 -9 -10 0 -18
-3 -18 -8 0 -4 -13 -13 -28 -20 -44 -19 -157 -136 -207 -212 -77 -121 -143
-285 -210 -530 -120 -436 -175 -591 -301 -842 -104 -208 -98 -202 -196 -223
-293 -62 -473 -196 -754 -560 -17 -22 -38 -55 -48 -72 -9 -18 -27 -49 -41 -69
-24 -36 -33 -97 -17 -119 4 -5 47 -30 96 -53 l89 -44 -94 -94 c-112 -113 -307
-284 -456 -401 -104 -81 -313 -227 -361 -252 -23 -12 -24 -12 -17 21 10 42 52
149 105 263 111 239 97 277 -110 284 -84 3 -377 -15 -550 -34 -74 -8 -202 -15
-284 -17 l-150 -3 -12 65 c-32 169 -118 325 -291 522 -145 165 -321 320 -488
430 -241 157 -496 248 -702 249 -328 1 -622 -178 -1355 -823 l-158 -139 0
-1859 c0 -1483 3 -1858 13 -1855 35 13 254 80 332 101 292 81 489 82 703 4
210 -76 361 -179 586 -399 169 -166 280 -295 560 -651 l216 -275 0 -72 c0
-135 -28 -205 -184 -448 -118 -184 -227 -401 -260 -517 -38 -132 -48 -267 -36
-465 14 -237 38 -365 102 -533 65 -169 219 -433 410 -700 l54 -75 4085 -2
4084 -2 63 129 c124 255 294 481 587 778 369 377 676 635 1110 937 390 271
513 378 613 531 29 45 67 121 84 170 29 82 32 99 32 214 -1 113 -4 134 -31
215 -59 173 -149 311 -301 463 -333 334 -784 510 -1216 472 -150 -13 -336 -50
-452 -90 -202 -70 -319 -139 -797 -463 -70 -48 -130 -87 -133 -87 -4 0 -29
-13 -55 -30 -56 -34 -205 -93 -287 -114 -60 -15 -118 -21 -189 -18 -41 2 -43
3 -43 35 0 48 -35 182 -68 265 -102 248 -297 484 -602 727 -156 125 -135 110
-500 354 -406 272 -458 310 -624 458 -244 218 -360 380 -413 578 -3 11 -7 58
-9 105 -5 164 49 288 185 419 123 117 322 215 521 254 152 30 148 30 155 5 11
-33 181 -372 260 -519 138 -252 252 -406 450 -604 443 -443 938 -653 1433
-607 70 7 201 14 292 16 235 6 351 24 785 117 544 116 750 131 1035 73 451
-92 955 -480 1512 -1164 210 -258 379 -498 644 -915 279 -439 414 -614 549
-713 28 -20 55 -42 62 -48 17 -16 137 -73 191 -90 26 -8 92 -17 147 -20 88 -5
111 -3 190 21 182 53 332 143 521 314 229 206 499 525 863 1021 63 85 193 278
256 380 160 259 279 518 339 741 27 102 70 325 81 429 4 35 15 89 25 120 10
30 35 111 55 180 116 397 202 612 312 780 162 247 391 440 710 599 76 38 150
74 166 80 l27 11 0 510 c0 280 -3 510 -6 510 -17 0 -224 -56 -317 -86 -407
-132 -767 -353 -1106 -679 -262 -251 -468 -527 -616 -824 -121 -242 -181 -427
-281 -863 -110 -481 -168 -652 -298 -882 -51 -92 -73 -119 -136 -174 -146
-125 -287 -206 -424 -241 -76 -20 -84 -20 -168 -6 -230 40 -505 178 -798 400
-653 495 -1411 1423 -1635 2003 -67 175 -86 269 -92 459 -8 245 14 376 115
693 124 388 160 678 116 954 -80 505 -469 1003 -919 1177 -265 103 -532 88
-764 -42 -132 -75 -292 -212 -412 -354 -53 -63 -83 -89 -127 -111 -145 -70
-268 -150 -482 -313 -272 -207 -352 -265 -420 -310 -133 -88 -307 -161 -420
-177 -117 -16 -291 -4 -395 26 -234 70 -438 163 -693 315 -89 52 -118 77 -172
141 -36 42 -96 114 -134 158 -38 45 -211 258 -384 475 -378 473 -509 626 -678
792 -288 281 -544 420 -773 418 -47 0 -108 -7 -136 -16z"/>
</g>
</svg>
